<?xml version="1.0" encoding="UTF-8"?>
<svg version="1.1" xmlns="http://www.w3.org/2000/svg" width="285" height="107">
<path d="M0 0 C1.22589844 0.01353516 1.22589844 0.01353516 2.4765625 0.02734375 C3.41628906 0.04474609 3.41628906 0.04474609 4.375 0.0625 C4.375 0.7225 4.375 1.3825 4.375 2.0625 C7.675 1.4025 10.975 0.7425 14.375 0.0625 C15.035 2.3725 15.695 4.6825 16.375 7.0625 C17.035 7.0625 17.695 7.0625 18.375 7.0625 C18.6225 7.64 18.87 8.2175 19.125 8.8125 C20.28393522 11.16851158 20.28393522 11.16851158 22.375 12.9375 C26.59433692 17.42054547 26.69446106 22.59048423 26.5703125 28.4609375 C26.16637834 33.84134048 25.38690169 38.54464746 22.375 43.0625 C21.715 43.0625 21.055 43.0625 20.375 43.0625 C20.13265625 43.65675781 19.8903125 44.25101563 19.640625 44.86328125 C16.93164669 49.57054911 11.41686763 52.47910925 6.3125 53.9375 C4.8584375 53.999375 4.8584375 53.999375 3.375 54.0625 C2.075625 54.124375 0.77625 54.18625 -0.5625 54.25 C-10.26319615 54.10189777 -16.20080325 49.68456566 -22.85546875 43.1953125 C-27.52875577 37.56260894 -27.18677688 30.98749594 -27.01171875 24.02734375 C-26.48935458 18.67179191 -24.86584585 15.26909934 -21.625 11.0625 C-20.944375 10.0725 -20.26375 9.0825 -19.5625 8.0625 C-17.53754415 5.97222299 -16.48244215 5.36865452 -13.625 5.0625 C-13.625 4.4025 -13.625 3.7425 -13.625 3.0625 C-11.954375 2.5984375 -11.954375 2.5984375 -10.25 2.125 C-2.86057692 -0.04086538 -2.86057692 -0.04086538 0 0 Z M6.375 3.0625 C7.375 5.0625 7.375 5.0625 7.375 5.0625 Z M-6.625 13.0625 C-6.625 13.7225 -6.625 14.3825 -6.625 15.0625 C-7.8315625 15.43375 -7.8315625 15.43375 -9.0625 15.8125 C-11.796081 16.78488859 -11.796081 16.78488859 -12.4375 19.1875 C-12.499375 19.80625 -12.56125 20.425 -12.625 21.0625 C-13.285 21.0625 -13.945 21.0625 -14.625 21.0625 C-15.09489392 28.28059272 -15.13081132 33.21712316 -10.625 39.0625 C-7.14854929 41.80706635 -4.03487076 42.79790775 0.375 43.0625 C6.74277861 41.94534586 9.94497705 39.41824598 13.6875 34.25 C14.77212697 30.7989142 14.55248295 27.6713199 14.375 24.0625 C13.24965895 22.70631501 13.24965895 22.70631501 10.3125 23 C8.8584375 23.0309375 8.8584375 23.0309375 7.375 23.0625 C7.705 22.485 8.035 21.9075 8.375 21.3125 C9.64575898 18.86366138 9.64575898 18.86366138 9.375 15.0625 C8.12836669 14.55416409 6.87750613 14.05618855 5.625 13.5625 C4.58085938 13.14484375 4.58085938 13.14484375 3.515625 12.71875 C-0.05901564 11.62287477 -3.11967025 12.06097722 -6.625 13.0625 Z M9.375 13.0625 C10.375 15.0625 10.375 15.0625 10.375 15.0625 Z " fill="#475847" transform="translate(62.625,24.9375)"/>
<path d="M0 0 C9.9 0 19.8 0 30 0 C30 0.66 30 1.32 30 2 C30.66 2 31.32 2 32 2 C32.495 3.485 32.495 3.485 33 5 C33.66 5.33 34.32 5.66 35 6 C35.144375 5.195625 35.28875 4.39125 35.4375 3.5625 C36 1 36 1 37 0 C38.68608966 -0.07205511 40.37500659 -0.08386068 42.0625 -0.0625 C42.98160156 -0.05347656 43.90070313 -0.04445312 44.84765625 -0.03515625 C45.55792969 -0.02355469 46.26820313 -0.01195312 47 0 C46.46759374 4.19269932 45.16728314 6.33224521 42.5 9.5625 C38.80382893 14.56098796 38.20703633 18.49529654 38.16796875 24.62890625 C38.11253906 25.41136719 38.05710938 26.19382812 38 27 C35.26752652 28.36623674 33.01801098 28.128426 30 28 C28.32432007 26.32432007 28.79600917 24.1097941 28.6875 21.8125 C28.28178291 16.60579729 27.20753894 14.03529092 24 10 C24 9.34 24 8.68 24 8 C23.34 8 22.68 8 22 8 C22.061875 9.0725 22.12375 10.145 22.1875 11.25 C21.99365905 15.126819 21.73628314 16.36506068 19 19 C16.24921116 19.91692961 14.64051087 20.10886083 11.8125 20.0625 C9.9253125 20.0315625 9.9253125 20.0315625 8 20 C8 22.31 8 24.62 8 27 C5.6739143 27.38063221 3.33944736 27.71269945 1 28 C0 27 0 27 -0.11352539 24.40795898 C-0.10828857 23.28204346 -0.10305176 22.15612793 -0.09765625 20.99609375 C-0.09515869 19.90224365 -0.09266113 18.80839355 -0.09008789 17.68139648 C-0.08098389 16.28091064 -0.07187988 14.8804248 -0.0625 13.4375 C-0.041875 9.003125 -0.02125 4.56875 0 0 Z M21 3 C20.67 3.66 20.34 4.32 20 5 C20.66 5 21.32 5 22 5 C21.67 4.34 21.34 3.68 21 3 Z M10 7 C9.34 8.65 8.68 10.3 8 12 C8.99 12.33 9.98 12.66 11 13 C11.66 12.34 12.32 11.68 13 11 C12.34 9.68 11.68 8.36 11 7 C10.67 7 10.34 7 10 7 Z " fill="#475847" transform="translate(96,45)"/>
<path d="M0 0 C0.66 0.66 1.32 1.32 2 2 C1.67 2.66 1.34 3.32 1 4 C1.66 4 2.32 4 3 4 C3.33 5.98 3.66 7.96 4 10 C4.66 10 5.32 10 6 10 C6.99 6.7 7.98 3.4 9 0 C12.3 0 15.6 0 19 0 C18.48096985 4.93078644 16.87150915 9.05249433 14.98828125 13.5859375 C13.8565252 16.35046414 12.89936907 19.15199793 12 22 C11.34 22 10.68 22 10 22 C10 23.65 10 25.3 10 27 C2.25 28.125 2.25 28.125 0 27 C-0.9296875 24.84765625 -0.9296875 24.84765625 -1.875 22.0625 C-3.24539062 18.13609991 -4.65346752 14.24076185 -6.1875 10.375 C-6.51105469 9.55773438 -6.83460938 8.74046875 -7.16796875 7.8984375 C-7.85033639 6.02839816 -7.85033639 6.02839816 -9 5 C-9.33 12.26 -9.66 19.52 -10 27 C-12.97 27 -15.94 27 -19 27 C-19.19582583 22.68783519 -19.38027074 18.3752591 -19.5625 14.0625 C-19.61857422 12.83080078 -19.67464844 11.59910156 -19.73242188 10.33007812 C-19.78076172 9.16025391 -19.82910156 7.99042969 -19.87890625 6.78515625 C-19.9260376 5.70113525 -19.97316895 4.61711426 -20.02172852 3.50024414 C-20 1 -20 1 -19 0 C-12.63410465 -1.17886951 -6.38064043 -1.23530917 0 0 Z " fill="#445343" transform="translate(242,45)"/>
<path d="M0 0 C3.86113877 4.04072662 5.56307218 6.94608266 5.9375 12.5625 C5.6875 15.8125 5.6875 15.8125 4.6875 17.8125 C4.0275 17.8125 3.3675 17.8125 2.6875 17.8125 C2.56375 18.43125 2.44 19.05 2.3125 19.6875 C1.6875 21.8125 1.6875 21.8125 -0.3125 23.8125 C-6.18862106 26.27227161 -11.42738759 26.59152875 -17.5 24.6875 C-21.64126158 22.94254124 -23.47949941 21.01312635 -25.3125 16.8125 C-26.10756532 11.79365017 -25.95494711 7.36004828 -23.5625 2.8125 C-20.66407546 -1.05206605 -19.10959046 -1.73822739 -14.5625 -2.875 C-8.81934927 -3.42722603 -4.89995656 -3.23582037 0 0 Z M-14.3125 6.8125 C-15.54219878 10.32440809 -15.54219878 10.32440809 -16.3125 13.8125 C-14.71045381 15.99962805 -14.71045381 15.99962805 -12.3125 17.8125 C-9.16539698 18.06579784 -9.16539698 18.06579784 -6.3125 16.8125 C-4.47325521 13.93368206 -4.23647066 12.38272006 -4.6875 9 C-4.89375 8.278125 -5.1 7.55625 -5.3125 6.8125 C-9.84390653 5.87869039 -9.84390653 5.87869039 -14.3125 6.8125 Z " fill="#465546" transform="translate(176.3125,47.1875)"/>
<path d="M0 0 C2.97 0 5.94 0 9 0 C9 6.6 9 13.2 9 20 C11.97 19.67 14.94 19.34 18 19 C19 22 19 22 18 27 C12.06 27 6.12 27 0 27 C0 18.09 0 9.18 0 0 Z " fill="#485748" transform="translate(203,45)"/>
<path d="M0 0 C2.97 0 5.94 0 9 0 C9 6.6 9 13.2 9 20 C11.97 19.67 14.94 19.34 18 19 C18 21.64 18 24.28 18 27 C12.06 27.33 6.12 27.66 0 28 C0 18.76 0 9.52 0 0 Z " fill="#465646" transform="translate(183,45)"/>
<path d="M0 0 C2.33944736 0.28730055 4.6739143 0.61936779 7 1 C8.00005304 4.00015912 8.11575585 5.97423756 8.09765625 9.10546875 C8.09443359 10.08837891 8.09121094 11.07128906 8.08789062 12.08398438 C8.07951172 13.10814453 8.07113281 14.13230469 8.0625 15.1875 C8.05798828 16.22326172 8.05347656 17.25902344 8.04882812 18.32617188 C8.0370401 20.88417266 8.02058515 23.44205733 8 26 C5.69 26 3.38 26 1 26 C0.13723183 20.54555038 -0.32124846 15.13719711 -0.625 9.625 C-0.6765625 8.80644531 -0.728125 7.98789062 -0.78125 7.14453125 C-0.89662584 5.09830677 -0.95352902 3.04894769 -1 1 C-0.67 0.67 -0.34 0.34 0 0 Z " fill="#4A5949" transform="translate(223,45)"/>
<path d="M0 0 C0.495 1.485 0.495 1.485 1 3 C-4.28922815 6.92194468 -8.32646591 9.71601983 -15 10 C-15.66 11.65 -16.32 13.3 -17 15 C-19.97 14.505 -19.97 14.505 -23 14 C-22.071875 14.433125 -22.071875 14.433125 -21.125 14.875 C-19 16 -19 16 -17 18 C-21.24717045 18.40449242 -23.87940349 17.99004539 -27.33984375 15.40625 C-34.73619632 9.14110429 -34.73619632 9.14110429 -37 6 C-36.72265625 3.75 -36.72265625 3.75 -36 2 C-35.566875 2.804375 -35.13375 3.60875 -34.6875 4.4375 C-33.19525998 7.27846354 -33.19525998 7.27846354 -30 8 C-27.66993089 8.35543427 -25.33672984 8.6913753 -23 9 C-23 8.01 -23 7.02 -23 6 C-23.66 5.67 -24.32 5.34 -25 5 C-24.67 3.68 -24.34 2.36 -24 1 C-23.67 1.99 -23.34 2.98 -23 4 C-18.52397336 6.27727671 -13.65519416 7.51439556 -8.6875 6.5 C-4.76103431 4.90279362 -2.71060276 3.21884077 0 0 Z " fill="#435343" transform="translate(75,60)"/>
<path d="M0 0 C1.11375 0.86625 1.11375 0.86625 2.25 1.75 C2.25 2.41 2.25 3.07 2.25 3.75 C2.91 3.75 3.57 3.75 4.25 3.75 C7.25 8.13461538 7.25 8.13461538 7.25 10.75 C5.93 10.75 4.61 10.75 3.25 10.75 C2.92 13.06 2.59 15.37 2.25 17.75 C1.59 17.42 0.93 17.09 0.25 16.75 C-0.41 17.74 -1.07 18.73 -1.75 19.75 C-3.4 19.75 -5.05 19.75 -6.75 19.75 C-5.265 14.305 -5.265 14.305 -3.75 8.75 C-3.09 9.41 -2.43 10.07 -1.75 10.75 C-1.75 8.77 -1.75 6.79 -1.75 4.75 C-2.74 4.75 -3.73 4.75 -4.75 4.75 C-5.41 3.43 -6.07 2.11 -6.75 0.75 C-3.91694689 -1.24362997 -3.2548744 -1.47948836 0 0 Z " fill="#47554B" transform="translate(76.75,28.25)"/>
<path d="M0 0 C2.5 1.5 2.5 1.5 4 3 C3.67 4.65 3.34 6.3 3 8 C3.99 8.33 4.98 8.66 6 9 C6 9.66 6 10.32 6 11 C4.35 11.33 2.7 11.66 1 12 C0.67 10.68 0.34 9.36 0 8 C-0.99 8 -1.98 8 -3 8 C-3 7.34 -3 6.68 -3 6 C-3.928125 6.0825 -4.85625 6.165 -5.8125 6.25 C-9 6 -9 6 -10.875 4 C-11.24625 3.34 -11.6175 2.68 -12 2 C-8.25577071 -0.49615286 -4.34882801 -0.61489576 0 0 Z " fill="#4C5D4B" transform="translate(172,46)"/>
<path d="M0 0 C0.33 1.65 0.66 3.3 1 5 C0.01 5.495 0.01 5.495 -1 6 C-0.979375 6.78375 -0.95875 7.5675 -0.9375 8.375 C-1 11 -1 11 -2 13 C-4.0625 13.625 -4.0625 13.625 -6 14 C-7.89499565 11.66769766 -9.08427175 9.9962794 -8.82421875 6.921875 C-8.3125 4.75 -8.3125 4.75 -7 1 C-4.53721199 -0.231394 -2.7204945 -0.07159196 0 0 Z " fill="#495949" transform="translate(257,46)"/>
<path d="M0 0 C0.33 0.66 0.66 1.32 1 2 C0.34 2.66 -0.32 3.32 -1 4 C-1 3.01 -1 2.02 -1 1 C-1.99 1.33 -2.98 1.66 -4 2 C-5.2684375 1.9690625 -5.2684375 1.9690625 -6.5625 1.9375 C-9.18389309 1.72472678 -9.18389309 1.72472678 -11 4 C-8.66785852 5.20628008 -6.50357861 6.1654738 -4 7 C-4.33 7.66 -4.66 8.32 -5 9 C-6.98 9 -8.96 9 -11 9 C-11.66 11.31 -12.32 13.62 -13 16 C-13.66 15.67 -14.32 15.34 -15 15 C-14.98839844 14.30132812 -14.97679687 13.60265625 -14.96484375 12.8828125 C-14.95582031 11.97273438 -14.94679687 11.06265625 -14.9375 10.125 C-14.92589844 9.22007813 -14.91429687 8.31515625 -14.90234375 7.3828125 C-14.83750743 4.9831415 -14.83750743 4.9831415 -16 3 C-14 0 -14 0 -11.375 -0.75 C-7.32633475 -1.04990113 -3.99499131 -0.74482889 0 0 Z " fill="#415041" transform="translate(173,45)"/>
<path d="M0 0 C-1.375 1.5 -1.375 1.5 -3 3 C-3.66 3 -4.32 3 -5 3 C-5 10.92 -5 18.84 -5 27 C-7.97 27 -10.94 27 -14 27 C-14 24.36 -14 21.72 -14 19 C-13.67 19 -13.34 19 -13 19 C-13 21.31 -13 23.62 -13 26 C-11.02 25.67 -9.04 25.34 -7 25 C-6.94213332 21.20839703 -6.90644946 17.41690689 -6.875 13.625 C-6.85824219 12.54476562 -6.84148437 11.46453125 -6.82421875 10.3515625 C-6.81455078 8.8046875 -6.81455078 8.8046875 -6.8046875 7.2265625 C-6.78897705 5.79691162 -6.78897705 5.79691162 -6.77294922 4.33837891 C-6.76868133 1.8076787 -6.76868133 1.8076787 -9 0 C-5.52176885 -1.15941038 -3.54104422 -0.70820884 0 0 Z " fill="#424B41" transform="translate(237,45)"/>
<path d="M0 0 C3.3 0 6.6 0 10 0 C9.54300722 5.02692063 7.00758252 8.14896261 4 12 C3.855625 11.401875 3.71125 10.80375 3.5625 10.1875 C3.1127561 8.43849596 2.57107659 6.71322977 2 5 C0.68 5 -0.64 5 -2 5 C-1.34 3.35 -0.68 1.7 0 0 Z " fill="#3C4A3E" transform="translate(133,45)"/>
<path d="M0 0 C3.3 0 6.6 0 10 0 C9.40438528 5.65833988 7.5330007 10.92444011 5 16 C4.34 16.33 3.68 16.66 3 17 C2.67 16.01 2.34 15.02 2 14 C2.33 13.34 2.66 12.68 3 12 C3.66 12 4.32 12 5 12 C4.79375 11.05125 4.5875 10.1025 4.375 9.125 C4.25125 8.09375 4.1275 7.0625 4 6 C4.66 5.34 5.32 4.68 6 4 C6 3.34 6 2.68 6 2 C4.02 2 2.04 2 0 2 C0 1.34 0 0.68 0 0 Z " fill="#354A39" transform="translate(251,45)"/>
<path d="M0 0 C3.63 0 7.26 0 11 0 C11 0.66 11 1.32 11 2 C11.66 2.33 12.32 2.66 13 3 C10.16032769 3 7.76264289 2.59732819 5 2 C4.34 3.65 3.68 5.3 3 7 C3.66 7.33 4.32 7.66 5 8 C4.34 8 3.68 8 3 8 C3 10.31 3 12.62 3 15 C2.67 15 2.34 15 2 15 C1.66269158 13.56342755 1.33030409 12.12569907 1 10.6875 C0.814375 9.88699219 0.62875 9.08648437 0.4375 8.26171875 C-0.1003155 5.48140467 0 2.82817166 0 0 Z M2 3 C1.67 3.66 1.34 4.32 1 5 C1.66 5 2.32 5 3 5 C2.67 4.34 2.34 3.68 2 3 Z " fill="#334235" transform="translate(115,45)"/>
<path d="M0 0 C0.66 0.33 1.32 0.66 2 1 C3.53247813 8.66239065 3.69071666 16.57534868 1 24 C-0.57421875 25.765625 -0.57421875 25.765625 -2 27 C-1.125 20.125 -1.125 20.125 0 19 C0.08651611 17.58429877 0.10704904 16.164405 0.09765625 14.74609375 C0.09443359 13.89208984 0.09121094 13.03808594 0.08789062 12.15820312 C0.07951172 11.26037109 0.07113281 10.36253906 0.0625 9.4375 C0.05798828 8.53580078 0.05347656 7.63410156 0.04882812 6.70507812 C0.03700225 4.46998686 0.0205222 2.23502563 0 0 Z " fill="#313E32" transform="translate(86,41)"/>
<path d="M0 0 C0.33 0.99 0.66 1.98 1 3 C-4.67793686 7.29788276 -8.81595146 9.73876187 -16 10 C-16.66 9.01 -17.32 8.02 -18 7 C-17.154375 7.04125 -16.30875 7.0825 -15.4375 7.125 C-9.91963478 6.92435036 -6.23140838 6.10040749 -2.0625 2.375 C-1.381875 1.59125 -0.70125 0.8075 0 0 Z " fill="#364B36" transform="translate(75,60)"/>
<path d="M0 0 C2.76276177 0.52268466 5.3260876 1.10869587 8 2 C7.67 2.66 7.34 3.32 7 4 C5.02 4 3.04 4 1 4 C0.34 6.31 -0.32 8.62 -1 11 C-1.66 10.67 -2.32 10.34 -3 10 C-3 7.36 -3 4.72 -3 2 C-2.01 2 -1.02 2 0 2 C0 1.34 0 0.68 0 0 Z " fill="#3A4A3A" transform="translate(161,50)"/>
<path d="M0 0 C0.66 0.33 1.32 0.66 2 1 C3.32 1 4.64 1 6 1 C5.875 2.875 5.875 2.875 5 5 C1.9375 6.25 1.9375 6.25 -1 7 C-1.625 4.625 -1.625 4.625 -2 2 C-1.34 1.34 -0.68 0.68 0 0 Z " fill="#4E5B4E" transform="translate(245,66)"/>
<path d="M0 0 C0.66 0 1.32 0 2 0 C2 0.66 2 1.32 2 2 C1.34 2 0.68 2 0 2 C0.14133499 3.77119803 0.28823208 5.54195287 0.4375 7.3125 C0.55931641 8.79169922 0.55931641 8.79169922 0.68359375 10.30078125 C0.91812559 13.09375599 0.91812559 13.09375599 2 16 C1.34 16.33 0.68 16.66 0 17 C-2.15164703 13.77252945 -2.27245079 12.79494361 -2.25 9.0625 C-2.25515625 8.20785156 -2.2603125 7.35320313 -2.265625 6.47265625 C-1.98713633 3.88025433 -1.30669172 2.23485766 0 0 Z " fill="#2F4130" transform="translate(48,44)"/>
<path d="M0 0 C0.33 0.99 0.66 1.98 1 3 C0.01 3.66 -0.98 4.32 -2 5 C-3.06246527 6.96752828 -4.07137808 8.96587579 -5 11 C-6.32 11 -7.64 11 -9 11 C-7.79618552 8.50638429 -6.54571278 6.31856917 -5 4 C-4.67 3.34 -4.34 2.68 -4 2 C-2.68 2 -1.36 2 0 2 C0 1.34 0 0.68 0 0 Z " fill="#343E35" transform="translate(84,37)"/>
<path d="M0 0 C0 2 0 4 0 6 C-1.65 6.66 -3.3 7.32 -5 8 C-5.66 6.35 -6.32 4.7 -7 3 C-2.25 0 -2.25 0 0 0 Z " fill="#4C5C4B" transform="translate(175,63)"/>
<path d="M0 0 C0.66 0 1.32 0 2 0 C3.5635348 3.12706959 3.39958487 6.57982443 3 10 C2.01 11.485 2.01 11.485 1 13 C0.01 12.67 -0.98 12.34 -2 12 C-1.01 11.67 -0.02 11.34 1 11 C0.835 9.741875 0.67 8.48375 0.5 7.1875 C0.17841759 4.73543415 0 2.48349306 0 0 Z " fill="#404C40" transform="translate(114,51)"/>
<path d="M0 0 C0.86625 0.3403125 0.86625 0.3403125 1.75 0.6875 C1.75 2.3375 1.75 3.9875 1.75 5.6875 C1.09 5.3575 0.43 5.0275 -0.25 4.6875 C-0.58 5.0175 -0.91 5.3475 -1.25 5.6875 C-2.24 6.1825 -2.24 6.1825 -3.25 6.6875 C-3.25 5.6975 -3.25 4.7075 -3.25 3.6875 C-4.24 3.3575 -5.23 3.0275 -6.25 2.6875 C-2.80384615 -0.38942308 -2.80384615 -0.38942308 0 0 Z " fill="#4B5C4D" transform="translate(239.25,45.3125)"/>
<path d="M0 0 C0.66 0.99 1.32 1.98 2 3 C1.67 3.66 1.34 4.32 1 5 C0.34 5 -0.32 5 -1 5 C-1.12375 5.61875 -1.2475 6.2375 -1.375 6.875 C-2 9 -2 9 -4 11 C-6.125 10.625 -6.125 10.625 -8 10 C-7.38125 9.79375 -6.7625 9.5875 -6.125 9.375 C-3.15346355 7.45224112 -2.86975341 5.33405473 -2 2 C-1.34 2 -0.68 2 0 2 C0 1.34 0 0.68 0 0 Z " fill="#39443A" transform="translate(180,60)"/>
<path d="M0 0 C0.33 0.66 0.66 1.32 1 2 C1.99 2 2.98 2 4 2 C4.625 4.875 4.625 4.875 5 8 C4.34 8.66 3.68 9.32 3 10 C0.96564469 6.27034861 0 4.33094958 0 0 Z " fill="#374839" transform="translate(71,31)"/>
<path d="M0 0 C1.67542976 0.28604898 3.34385343 0.61781233 5 1 C5 1.66 5 2.32 5 3 C3.35 3.66 1.7 4.32 0 5 C-0.5625 3.0625 -0.5625 3.0625 -1 1 C-0.67 0.67 -0.34 0.34 0 0 Z " fill="#4C5C4E" transform="translate(120,46)"/>
<path d="M0 0 C-1.25 1.5625 -1.25 1.5625 -3 3 C-5.97397616 2.72963853 -6.85446026 2.14553974 -9 0 C-5.52176885 -1.15941038 -3.54104422 -0.70820884 0 0 Z " fill="#2F3F3B" transform="translate(237,45)"/>
<path d="M0 0 C0.99 0 1.98 0 3 0 C4.09658936 3.28976808 3.79953138 4.71303767 3 8 C1.35 8 -0.3 8 -2 8 C-0.68 7.67 0.64 7.34 2 7 C1.34 4.69 0.68 2.38 0 0 Z " fill="#3C453B" transform="translate(218,64)"/>
<path d="M0 0 C0.33 0.99 0.66 1.98 1 3 C-1.3125 5.0625 -1.3125 5.0625 -4 7 C-4.99 6.67 -5.98 6.34 -7 6 C-4.69 4.02 -2.38 2.04 0 0 Z " fill="#3E473D" transform="translate(75,60)"/>
<path d="M0 0 C0.99 0 1.98 0 3 0 C2.67 1.98 2.34 3.96 2 6 C1.01 5.34 0.02 4.68 -1 4 C-0.67 2.68 -0.34 1.36 0 0 Z " fill="#2C522D" transform="translate(246,55)"/>
<path d="M0 0 C0.33 0.66 0.66 1.32 1 2 C-0.22934015 5.68802044 -1.93859378 6.72356973 -5 9 C-3.90931332 5.22454612 -3.0916909 2.52956528 0 0 Z " fill="#444C41" transform="translate(43,34)"/>
<path d="" fill="#000000" transform="translate(0,0)"/>
</svg>
